HIERARCHY
ROOT root
{
	OFFSET 0.000000 0.000000 0.000000
	CHANNELS 6 Xposition Yposition Zposition Zrotation Yrotation Xrotation
	JOINT lhip
	{
		OFFSET 0.058581 -0.082280 -0.017664
		CHANNELS 3 Zrotation Yrotation Xrotation
		JOINT lknee
		{
			OFFSET 0.043451 -0.386469 0.008037
			CHANNELS 3 Zrotation Yrotation Xrotation
			JOINT lankle
			{
				OFFSET -0.014790 -0.426874 -0.037428
				CHANNELS 3 Zrotation Yrotation Xrotation
				JOINT ltoe
				{
					OFFSET 0.041054 -0.060286 0.122042
					CHANNELS 3 Zrotation Yrotation Xrotation
					End Site
					{
						OFFSET 0.000000 0.000000 0.000000
					}
				}
			}
		}
	}
	JOINT rhip
	{
		OFFSET -0.060310 -0.090513 -0.013543
		CHANNELS 3 Zrotation Yrotation Xrotation
		JOINT rknee
		{
			OFFSET -0.043257 -0.383688 -0.004843
			CHANNELS 3 Zrotation Yrotation Xrotation
			JOINT rankle
			{
				OFFSET 0.019056 -0.420046 -0.034562
				CHANNELS 3 Zrotation Yrotation Xrotation
				JOINT rtoe
				{
					OFFSET -0.034840 -0.062106 0.130323
					CHANNELS 3 Zrotation Yrotation Xrotation
					End Site
					{
						OFFSET 0.000000 0.000000 0.000000
					}
				}
			}
		}
	}
	JOINT lowerback
	{
		OFFSET 0.004439 0.124404 -0.038385
		CHANNELS 3 Zrotation Yrotation Xrotation
		JOINT upperback
		{
			OFFSET 0.004488 0.137956 0.026820
			CHANNELS 3 Zrotation Yrotation Xrotation
			JOINT chest
			{
				OFFSET -0.002265 0.056032 0.002855
				CHANNELS 3 Zrotation Yrotation Xrotation
				JOINT lowerneck
				{
					OFFSET -0.013390 0.211636 -0.033468
					CHANNELS 3 Zrotation Yrotation Xrotation
					JOINT upperneck
					{
						OFFSET 0.010113 0.088937 0.050410
						CHANNELS 3 Zrotation Yrotation Xrotation
						End Site
						{
							OFFSET 0.000000 0.000000 0.000000
						}
					}
				}
				JOINT lclavicle
				{
					OFFSET 0.071702 0.114000 -0.018898
					CHANNELS 3 Zrotation Yrotation Xrotation
					JOINT lshoulder
					{
						OFFSET 0.122921 0.045205 -0.019046
						CHANNELS 3 Zrotation Yrotation Xrotation
						JOINT lelbow
						{
							OFFSET 0.255332 -0.015649 -0.022946
							CHANNELS 3 Zrotation Yrotation Xrotation
							JOINT lwrist
							{
								OFFSET 0.265709 0.012698 -0.007375
								CHANNELS 3 Zrotation Yrotation Xrotation
								End Site
								{
									OFFSET 0.000000 0.000000 0.000000
								}
							}
						}
					}
				}
				JOINT rclavicle
				{
					OFFSET -0.082954 0.112472 -0.023707
					CHANNELS 3 Zrotation Yrotation Xrotation
					JOINT rshoulder
					{
						OFFSET -0.113228 0.046853 -0.008472
						CHANNELS 3 Zrotation Yrotation Xrotation
						JOINT relbow
						{
							OFFSET -0.260127 -0.014369 -0.031269
							CHANNELS 3 Zrotation Yrotation Xrotation
							JOINT rwrist
							{
								OFFSET -0.269108 0.006794 -0.006027
								CHANNELS 3 Zrotation Yrotation Xrotation
								End Site
								{
									OFFSET 0.000000 0.000000 0.000000
								}
							}
						}
					}
				}
			}
		}
	}
}
MOTION
Frames: 10
Frame Time: 0.033333
1.133964 0.271022 1.001249 84.879139 -3.074191 92.788927 0.525866 2.222948 -3.036944 -3.959803 -4.736621 2.811411 3.647429 9.033687 -7.673733 0.000000 -0.000000 0.000000 -5.111672 -1.083243 -15.479524 1.753321 -2.173735 20.757466 2.359322 -7.446936 -8.731464 0.000000 -0.000000 0.000000 9.479593 -4.203878 22.667687 10.722959 -1.102160 5.710284 5.994729 0.769337 2.558731 6.138930 -16.439859 8.813805 1.558747 -12.881625 14.897120 -23.481058 -2.066955 4.451526 -61.770935 -12.389519 15.217318 4.070633 -49.210179 15.221396 11.674183 -5.338793 -12.079548 22.914150 10.664250 5.466147 35.026056 14.855972 0.604860 -24.352544 19.756175 -18.511049 -14.206912 8.922659 7.258247 
1.133371 0.270935 1.001349 85.357112 -3.437562 92.702770 0.162302 2.086465 -3.133487 -3.931375 -4.912035 2.733334 3.230396 8.893019 -7.609132 0.000000 -0.000000 0.000000 -5.430670 -1.141021 -15.779304 1.502284 -2.540999 21.510680 2.287154 -7.526326 -8.990483 0.000000 -0.000000 0.000000 9.904878 -4.310727 23.172595 10.904914 -1.083721 5.824880 5.924340 0.895651 2.511633 6.264970 -15.724995 8.945151 1.177625 -12.872714 14.953811 -23.780673 -2.103623 4.533311 -61.565802 -12.384811 14.967895 4.170664 -49.550569 15.151176 11.981598 -5.272898 -12.869243 23.149662 10.768912 5.853942 34.834865 15.409252 0.103936 -25.282257 19.459146 -18.832221 -18.057910 9.950721 7.617999 
1.132820 0.270753 1.000945 86.065427 -3.883525 92.482339 -0.210032 2.153913 -3.233298 -4.110779 -4.997717 3.167276 3.055822 8.779726 -7.582503 0.000000 -0.000000 0.000000 -5.821145 -1.158219 -16.236223 1.234414 -2.869317 22.786261 2.361578 -7.971512 -9.414075 0.000000 -0.000000 0.000000 9.955027 -4.472529 23.981678 11.031286 -1.044833 5.380641 5.974617 0.925567 2.516076 6.302750 -15.264520 8.857290 0.836192 -12.539512 15.177284 -23.594180 -2.063316 4.550010 -61.603937 -12.379244 14.961940 3.684742 -49.802656 15.862293 13.568179 -5.376002 -13.581063 23.330633 10.718989 5.827943 34.581195 15.603561 0.023944 -25.383353 19.591034 -19.209538 -20.780185 10.774592 6.877117 
1.133679 0.270313 0.999940 86.745368 -4.253273 92.235657 -0.524655 2.103552 -2.966329 -4.107436 -5.485898 3.179321 3.675144 8.706671 -8.108045 0.000000 -0.000000 0.000000 -6.061271 -1.149613 -16.796671 0.945208 -3.008859 24.587117 2.331932 -8.518636 -10.112837 0.000000 -0.000000 0.000000 9.969371 -4.659351 24.216208 11.083553 -0.894667 5.150319 5.997971 0.941184 2.709651 6.151107 -14.977083 9.088377 0.660207 -11.866211 15.269778 -23.410225 -2.013562 4.653266 -61.754945 -12.374057 14.936479 3.003299 -50.122228 17.028732 14.839075 -5.019878 -14.094519 23.004312 10.614322 5.802696 35.055373 15.016222 0.749141 -25.751942 20.738999 -18.063289 -23.093878 11.767753 7.900920 
1.134410 0.269883 0.999183 87.187278 -4.433176 91.985722 -0.658024 2.086471 -2.770892 -4.153472 -5.850842 3.317779 3.858615 8.534760 -8.127362 0.000000 -0.000000 0.000000 -6.150341 -1.024024 -16.904294 0.683150 -3.146914 25.533719 2.312324 -8.874272 -10.445983 0.000000 -0.000000 0.000000 9.948138 -4.805198 24.190029 11.041629 -0.908571 5.358192 5.889013 0.916725 2.683927 6.137374 -14.787401 9.087554 0.577630 -11.511743 15.431029 -23.318591 -2.088590 4.772561 -61.701960 -12.368492 14.787535 2.833013 -50.412770 17.017869 14.797153 -5.243321 -13.979395 22.994602 10.701813 5.996000 35.439066 14.687511 0.917069 -26.318679 21.082768 -18.346992 -22.504255 12.268288 8.828514 
1.135345 0.269665 0.998139 87.531094 -4.631490 91.644510 -0.778954 2.010545 -2.460309 -4.225370 -6.048062 3.477958 3.908048 8.532271 -8.337016 0.000000 -0.000000 0.000000 -6.280231 -0.935858 -16.853756 0.535571 -3.199577 26.306215 2.186965 -9.201367 -10.880591 0.000000 -0.000000 0.000000 9.778201 -4.777181 24.308192 10.934503 -0.918992 5.366403 5.788425 0.886430 2.695279 6.395380 -14.329595 9.019202 0.336734 -11.269314 15.949039 -23.386148 -1.974699 4.868890 -61.626518 -12.408632 14.760240 2.447089 -50.503707 17.464935 14.338992 -5.300756 -14.242050 23.275137 10.576823 6.141927 35.349659 14.700114 0.744231 -26.150849 20.484001 -19.116646 -22.634584 12.027101 7.149568 
1.136905 0.269000 0.997461 87.915939 -4.602049 91.567597 -0.732089 2.053732 -2.465700 -4.143475 -5.890767 3.454906 3.582793 8.413561 -8.716109 0.000000 -0.000000 0.000000 -6.144041 -0.972152 -16.936149 0.387088 -3.316666 26.892963 2.155756 -9.501107 -10.972614 0.000000 -0.000000 0.000000 9.679090 -4.759115 23.846022 10.982890 -0.999302 5.669563 5.722878 0.848330 2.611216 6.422429 -14.021229 9.039168 -0.075692 -10.785840 16.234636 -23.811240 -1.886585 4.774906 -61.674513 -12.211944 14.877227 3.041248 -50.534085 16.720103 13.358531 -5.255022 -13.505724 23.553536 10.231606 5.993273 34.957151 14.952728 -0.187994 -25.816702 19.331334 -21.309436 -20.236786 10.558160 4.545820 
1.138330 0.268611 0.997533 87.848988 -4.609905 91.480511 -0.781483 2.113749 -2.370546 -4.112581 -6.101312 3.802845 3.982457 8.317174 -8.592443 0.000000 -0.000000 0.000000 -6.138691 -1.031509 -16.753042 0.461042 -3.193504 26.886286 2.158868 -9.466643 -10.905165 0.000000 -0.000000 0.000000 9.562984 -4.546434 23.457595 10.896842 -0.914180 6.109517 5.613016 0.808782 2.500383 6.006986 -13.728947 9.058151 -0.202276 -9.985693 16.268738 -24.161444 -1.928728 4.587775 -61.609897 -12.110411 15.072668 3.459695 -50.381014 16.130098 10.123606 -5.210053 -12.740153 23.546004 10.007982 5.422669 34.541605 15.057586 -1.227835 -25.766437 17.859958 -24.382937 -12.614800 7.751604 3.345509 
1.139087 0.267877 0.997901 87.727233 -4.501580 91.533516 -0.676838 2.102630 -2.584057 -4.049552 -5.678845 4.286492 3.927127 8.285747 -9.058138 0.000000 -0.000000 0.000000 -5.957842 -1.226787 -16.579931 0.410993 -3.283825 26.589909 2.283380 -9.077270 -10.787795 0.000000 -0.000000 0.000000 9.153891 -4.288946 23.227380 10.855300 -0.913066 6.117492 5.719240 0.864128 2.455667 5.542129 -13.504232 8.781904 -0.262271 -9.135660 16.979871 -24.319968 -1.792986 4.282674 -61.895631 -11.797654 15.243329 3.894817 -50.120755 15.476220 6.759894 -5.673143 -11.253327 23.598690 9.710672 4.695029 34.002619 14.799816 -1.643624 -26.213920 17.470122 -24.413567 -2.801727 6.760369 6.969811 
1.139374 0.266730 0.998562 86.982290 -4.166947 91.810554 -0.363437 2.024575 -2.626052 -3.956903 -5.107190 4.157881 4.057983 8.531715 -9.352620 0.000000 -0.000000 0.000000 -5.535599 -1.022600 -16.743361 0.701390 -2.770026 26.232566 2.226684 -8.986644 -10.730523 0.000000 -0.000000 0.000000 8.759828 -4.032918 22.730813 10.599952 -0.567656 6.348479 5.693117 0.898353 2.444616 4.978820 -12.769210 8.509328 -0.572347 -7.852821 17.291836 -24.702973 -1.471182 3.856160 -61.751945 -11.320030 15.487409 4.035360 -50.028218 14.917723 2.552191 -5.465315 -10.189377 23.626910 9.670017 4.390087 32.328374 14.729295 -1.587194 -24.914774 17.551941 -23.530328 5.526959 3.419300 7.332520 
